inDegrees=no
num_controls=7
num_derivatives=13
num_iterations=109
num_multipliers=7
num_parameters=0
num_slacks=7
num_states=26
objective=0.469890
objective_accelerations=0.063329
objective_balance=0.002069
objective_effort=0.020185
objective_height=0.374712
objective_ligament=0.009595
solver_duration=1477.224266
status=Solve_Succeeded
success=true
DataType=double
version=3
OpenSimVersion=4.5
endheader
time	/jointset/ground_pelvis/pelvis_tilt/value	/jointset/ground_pelvis/pelvis_tx/value	/jointset/ground_pelvis/pelvis_ty/value	/jointset/hip_l/hip_flexion_l/value	/jointset/hip_l/hip_adduction_l/value	/jointset/hip_l/hip_rotation_l/value	/jointset/back/lumbar_extension/value	/jointset/patellofemoral_l/patellar_flexion_l/value	/jointset/knee_l/knee_flexion_l/value	/jointset/knee_l/knee_adduction_l/value	/jointset/knee_l/knee_rotation_l/value	/jointset/ankle_l/ankle_angle_l/value	/jointset/subtalar_l/subtalar_angle_l/value	/jointset/ground_pelvis/pelvis_tilt/speed	/jointset/ground_pelvis/pelvis_tx/speed	/jointset/ground_pelvis/pelvis_ty/speed	/jointset/hip_l/hip_flexion_l/speed	/jointset/hip_l/hip_adduction_l/speed	/jointset/hip_l/hip_rotation_l/speed	/jointset/back/lumbar_extension/speed	/jointset/patellofemoral_l/patellar_flexion_l/speed	/jointset/knee_l/knee_flexion_l/speed	/jointset/knee_l/knee_adduction_l/speed	/jointset/knee_l/knee_rotation_l/speed	/jointset/ankle_l/ankle_angle_l/speed	/jointset/subtalar_l/subtalar_angle_l/speed	/forceset/tau_hip_flexion_l	/forceset/tau_hip_adduction_l	/forceset/tau_hip_rotation_l	/forceset/tau_knee_flexion_l	/forceset/tau_ankle_angle_l	/forceset/tau_subtalar_angle_l	/forceset/tau_lumbar_extension	lambda_cid13_p0	lambda_cid13_p1	lambda_cid13_p2	lambda_cid13_p3	lambda_cid13_p4	lambda_cid13_p5	lambda_cid14_p0	/jointset/ground_pelvis/pelvis_tilt/accel	/jointset/ground_pelvis/pelvis_tx/accel	/jointset/ground_pelvis/pelvis_ty/accel	/jointset/hip_l/hip_flexion_l/accel	/jointset/hip_l/hip_adduction_l/accel	/jointset/hip_l/hip_rotation_l/accel	/jointset/back/lumbar_extension/accel	/jointset/patellofemoral_l/patellar_flexion_l/accel	/jointset/knee_l/knee_flexion_l/accel	/jointset/knee_l/knee_adduction_l/accel	/jointset/knee_l/knee_rotation_l/accel	/jointset/ankle_l/ankle_angle_l/accel	/jointset/subtalar_l/subtalar_angle_l/accel	gamma_cid13_p0	gamma_cid13_p1	gamma_cid13_p2	gamma_cid13_p3	gamma_cid13_p4	gamma_cid13_p5	gamma_cid14_p0
0.5	-0.4124791078748553	-0.0644388999824875	0.7764532853946953	1.181413692808118	-0.3534536498117345	-0.06416120504953583	-0.4075313112226847	0.7129900791575829	0.7129900791575829	-0.05514786754803709	-0.1745246130097532	0.04900198021259122	0.08233214039840304	-1.294637210452079	-0.4019087347232304	-0.4986061049301743	2.868722445093752	0.04465481530293818	0.4335110227459735	-0.2842516057127207	1.345656540826401	1.3456565408264	0.2138782923280758	0.0007547523382154661	-0.1266823198657411	0.003544951695085565	-0.1663187889166978	0.006027612169919792	0.005639932664500026	-0.1441806515937488	0.09454629352696732	0.005485081978868021	0.1508324643611388	5.472046254486615	-2.674207933665422	-0.6154905317976606	-7.906615757629975	-435.9769550017659	-63.5357779780742	-14.66530730880783	0.5768887411075532	0.7027924576311956	-0.3748962349320341	-1.776798797327822	0.1038275249697743	-0.336358628294677	1.585870184825886	-1.056802986813278	-1.056802986813278	-0.449172380573986	0.1107309529057047	0.01440532187165115	0.1148634352014386	-2.155998405727487e-08	-1.130051562707693e-06	-3.657352461345222e-07	-2.415284439413376e-07	-2.559826955286854e-07	2.229759742953739e-07	-1.669865094313358e-07
0.51	-0.4253944083201716	-0.0684222893750511	0.7714497208298925	1.210007197729372	-0.3530027393394349	-0.0598461910805373	-0.4102954061825433	0.7263914457164892	0.7263914457164889	-0.05303162860988769	-0.1745144939533886	0.04773573583747318	0.08237245615067795	-1.288295485740535	-0.3947213918445666	-0.5019913138461043	2.849621325638255	0.0455273184333436	0.4294328327136434	-0.2685493309941251	1.334400691926759	1.334400691926759	0.2093740895598404	0.001270311585171002	-0.1265615001362382	0.004520241855935876	-0.172753253928109	0.006496996108196306	0.005174713049711061	-0.1450232649969816	0.09697218144324883	0.006259971648528757	0.1553099622607384	6.107217223873276	-2.963611368489669	-0.7502195954218822	-8.45558515618654	-439.5650642499262	-63.76781149441553	-14.11674661682778	0.6818991130183101	0.733817533272164	-0.3030534254634248	-2.030376807861073	0.07921668949601471	-0.4524995494081278	1.565114405109006	-1.192356599470981	-1.192356599470882	-0.4506066261650945	0.02211765257122034	0.01163165133857682	0.08940231965804346	-3.639089617676366e-09	-1.177642981870121e-06	-5.546861866489537e-07	-2.672426956216225e-07	-2.021438150422624e-07	2.089365707890618e-07	-1.510543225965344e-07
0.52	-0.4382424745630044	-0.07233238287277041	0.7664157601348225	1.23839896979843	-0.3525430528393472	-0.05557374908360328	-0.4129019367372695	0.7396737776348127	0.7396737776348125	-0.05096034417966397	-0.1744991894561582	0.04647084193021996	0.08242263290718758	-1.281190369955369	-0.3872495557543754	-0.5046853309836312	2.828375874654739	0.04641002086055256	0.4249966283330751	-0.2527387246862248	1.321849612709864	1.321849612709864	0.2048873907429329	0.001791840511356249	-0.1264122262927768	0.005517152542034828	-0.1791877189395203	0.006966380046472806	0.00470949343492229	-0.1458658784002145	0.09939806935953034	0.007034861318189469	0.1597874601603379	6.741464401584526	-3.252642238940652	-0.8852491934822513	-9.005816538535081	-443.1690900778187	-64.0199098557849	-13.5717010005029	0.7295669558320421	0.7596910999366614	-0.2366578792513797	-2.205665102931733	0.1058673843304801	-0.4079614979423352	1.607536502686836	-1.315849050263971	-1.315849050263971	-0.4456715903085228	0.1119248887516484	0.02009614466335035	0.1191875402511666	1.028953307000111e-08	-1.265359871978435e-06	-7.528574513479637e-07	-2.974183930344712e-07	-1.627012268704534e-07	2.011591783276321e-07	-1.421098164519324e-07
0.53	-0.4510153432713003	-0.0761665212452253	0.7613583492807293	1.266567526183527	-0.3520744067947159	-0.05134944526067413	-0.4153503139815301	0.7528243291541772	0.752824329154177	-0.0489323393577493	-0.1744801727379229	0.04520754121209061	0.08248298677127867	-1.273213867643173	-0.3795477321307786	-0.5066771137289094	2.804957111135583	0.04731694605376247	0.4196943177211083	-0.2369762296023243	1.308056685687876	1.308056685687876	0.200793122759283	0.001924789977659136	-0.1262517537969026	0.00655200654281806	-0.1859492781510311	0.00763461976222826	0.004174624770373146	-0.1459856902511022	0.1006271271134302	0.007811909151450763	0.1643718278868974	6.984001275739878	-3.509201655499448	-0.9852746513438233	-9.15221943056115	-446.7788482474544	-64.1359691394383	-13.03038110299905	0.8570942378627426	0.7799233307940717	-0.1625079530326768	-2.466749128177362	0.08309150631241569	-0.6169279278957331	1.554680195774245	-1.441587867099338	-1.441587867099394	-0.3796740610561907	-0.0491351693017083	0.01339028413266792	0.0957019582481006	-2.253257862370452e-08	-1.011274119429285e-06	-3.408354629957682e-07	-2.290109612998327e-07	-2.087338736080491e-07	2.720686136765757e-07	-1.59411888228122e-07
0.54	-0.4637033664826846	-0.07992274231399965	0.7562846067030099	1.294490541503078	-0.3515966942142531	-0.04718327696087904	-0.417642251438045	0.765830836735535	0.765830836735535	-0.04694295114740367	-0.1744624495539988	0.04394571871533666	0.08255370270102884	-1.264221270573001	-0.3716660950182649	-0.5079516757088532	2.779267661545632	0.04822332802681914	0.4133695237062658	-0.2214507671371198	1.293040825108561	1.293040825108561	0.1971640684291141	0.001533133649109335	-0.1261165820176978	0.007589565673849266	-0.192710837362542	0.0083028594779837	0.003639756105824348	-0.14610550210199	0.1018561848673301	0.008588956984712034	0.168956195613457	7.225298632998178	-3.765624230205216	-1.085231009840455	-9.296720020284251	-450.4084588473738	-64.26710644619162	-12.49321665819424	0.9327859074272624	0.7956537977200443	-0.09321372618449475	-2.659802317090825	0.1057587402998321	-0.6124581785174973	1.560129978947645	-1.560435761729572	-1.560435761729572	-0.3526288596123524	0.007003729781110662	0.01503600132965514	0.1197285663007618	-1.07078907079792e-07	-3.79023740961233e-07	7.46293954264152e-07	-5.153283348712181e-08	-3.49334865351796e-07	4.30035815964657e-07	-2.057527270656133e-07
0.55	-0.4762963422322957	-0.08359918035807612	0.7512017151028461	1.322145147292131	-0.3511111084855041	-0.04307882673173255	-0.4197801819292271	0.7786811448045182	0.7786811448045182	-0.04499350126358509	-0.1744471075760902	0.04268503623911068	0.08263345287199426	-1.254200033924638	-0.3635857098128008	-0.5085045070268402	2.751270160018295	0.04885173724181528	0.4074853444513211	-0.2061825367125339	1.27684182212044	1.27684182212044	0.1926578513395069	0.001505542083767238	-0.1260066959739005	0.008320709984756237	-0.1993359971332437	0.008684204976902051	0.003102044872678468	-0.1465506465746634	0.1036654545074271	0.009261297830804146	0.1734343085355789	7.647671808859156	-3.99166040379859	-1.20901253046246	-9.634640864503032	-454.0886398415037	-64.37791714876703	-11.96061857729972	1.062838701536212	0.8196105342770734	-0.01808244530467781	-2.927263918126068	0.03494536566781133	-0.5818796073332293	1.50308873222901	-1.676431346588344	-1.676431346588386	-0.5098117237775742	-0.01182850916336065	0.01095052902165838	0.04369068265108208	-1.498990502834873e-07	-1.94356948843479e-08	1.329836122079766e-06	4.565406155736468e-08	-4.077342484197499e-07	5.190899135166721e-07	-2.270283143725696e-07
0.5600000000000001	-0.4887838963838241	-0.08719373861963445	0.7461169422673624	1.349508270096397	-0.3506205259938913	-0.03903431465680555	-0.4217668462845603	0.7913641030877732	0.7913641030877733	-0.04309115226869112	-0.1744328790957294	0.04142584974794605	0.08271929114990186	-1.243136950956454	-0.3552901385146372	-0.5083279227727849	2.72097106458812	0.0492226805995437	0.4013818928623655	-0.1911975399673501	1.259570867962917	1.259570867962916	0.1877438906441931	0.001310434139565832	-0.1258173850054277	0.008807187062279904	-0.2059611569039453	0.009065550475820406	0.002564333639532543	-0.1469957910473368	0.1054747241475244	0.009933638676896263	0.1779124214577009	8.069517387144904	-4.218959909751574	-1.331043662014219	-9.992900475022019	-457.7894924213227	-64.54728357060407	-11.43307635017473	1.141155171391499	0.8386910162599569	0.0526693882239572	-3.120121097658472	0.05426556884629147	-0.6563126453196799	1.503483243067202	-1.77482599561018	-1.77482599561018	-0.4341775807536506	-0.02649954599071905	0.03092098626476021	0.07079511962410098	-1.426477711843136e-07	1.295755232314831e-08	1.309073590562232e-06	4.649147727998485e-08	-3.674917010767554e-07	5.254482853854106e-07	-2.182255998428851e-07
